<svg id="Layer_1" data-name="Layer 1" xmlns="http://www.w3.org/2000/svg" viewBox="0 0 93.47 71.39"><defs><style>.cls-1,.cls-2{stroke:#000;stroke-miterlimit:10;}.cls-2{fill:none;}</style></defs><title>icontest</title><path class="cls-1" d="M85.75,42.74A2,2,0,0,1,85.21,44a2,2,0,0,1-1.25.54c-1.18.14-12,.16-19.23,0a5.23,5.23,0,0,0-4.21,1.94,4.89,4.89,0,0,0,.07,5.85,5.11,5.11,0,0,0,4.11,1.77c7.23-.16,18.08-.16,19.25,0a2.09,2.09,0,0,1,1.26.56,1.94,1.94,0,0,1,.53,1.25q0,11.66,0,23.31a5.15,5.15,0,0,0,1.79,4.15,4.93,4.93,0,0,0,5.92,0,5.16,5.16,0,0,0,1.77-4.12l.12-59.73a5.29,5.29,0,0,0-1.85-4.2,4.94,4.94,0,0,0-6,0,5.21,5.21,0,0,0-1.76,4.12C85.88,32.17,85.89,41.54,85.75,42.74Z" transform="translate(-2.41 -13.62)"/><path class="cls-2" d="M25.9,58.82" transform="translate(-2.41 -13.62)"/><path class="cls-1" d="M8.7,14.79a52.69,52.69,0,0,1,14.54-.32,42.41,42.41,0,0,1,9.87,2.1A36.4,36.4,0,0,1,48.23,27.06a35.45,35.45,0,0,1,7.35,15.23,35.07,35.07,0,0,1,.31,12.91,34.74,34.74,0,0,1-7.66,16.59,34.23,34.23,0,0,1-8.71,7.37c-5.66,3.35-10.69,4.1-15.12,4.7C21.71,84.23,7.18,86.21,4,80.69a5.89,5.89,0,0,1-.49-1c-.38-1.24-.09-2.83,0-9,.1-5.91,0-10.76-.14-14a5.15,5.15,0,0,1,1.8-4.12,4.93,4.93,0,0,1,5.9,0,5.13,5.13,0,0,1,1.81,4.09q-.06,7.33-.13,14.67a4.52,4.52,0,0,0,.84,2.52c3.33,4.41,15.41-.11,16.48-.52a25.75,25.75,0,0,0,9.19-5.49,25,25,0,0,0,7-12.36,26.23,26.23,0,0,0,.32-11.34A26.14,26.14,0,0,0,39.2,31,27,27,0,0,0,28,23.7C25.84,23,18.29,20.62,10.33,23c-1.92.56-3.89,1.41-5.46.42A5.12,5.12,0,0,1,3.5,17C4.25,15.79,5.58,15.28,8.7,14.79Z" transform="translate(-2.41 -13.62)"/></svg>