<svg id="Layer_1" data-name="Layer 1" xmlns="http://www.w3.org/2000/svg" viewBox="0 0 49.4 37.84"><defs><style>.cls-1{fill:#9a3cf4;stroke:#9a3cf4;stroke-miterlimit:10;}</style></defs><path class="cls-1" d="M44.16,21.13a1.06,1.06,0,0,1-.28.66,1,1,0,0,1-.66.28c-.61.08-6.29.08-10.06,0a2.71,2.71,0,0,0-2.2,1,2.55,2.55,0,0,0,0,3.06,2.68,2.68,0,0,0,2.15.93c3.79-.08,9.46-.08,10.08,0a1.09,1.09,0,0,1,.65.29,1,1,0,0,1,.28.66l0,12.2a2.67,2.67,0,0,0,.93,2.17,2.58,2.58,0,0,0,3.1,0,2.71,2.71,0,0,0,.93-2.15L49.2,9a2.78,2.78,0,0,0-1-2.2,2.58,2.58,0,0,0-3.16,0,2.7,2.7,0,0,0-.92,2.16C44.23,15.6,44.23,20.5,44.16,21.13Z" transform="translate(-0.3 -5.65)"/><path class="cls-1" d="M12.84,29.54" transform="translate(-0.3 -5.65)"/><path class="cls-1" d="M3.84,6.5a27.82,27.82,0,0,1,7.6-.17,22.87,22.87,0,0,1,5.17,1.1,18.91,18.91,0,0,1,7.91,5.5,18.43,18.43,0,0,1,4,14.72,18.14,18.14,0,0,1-4,8.68A17.82,17.82,0,0,1,20,40.19a19.36,19.36,0,0,1-7.91,2.46c-1.41.19-9,1.23-10.69-1.66a2.64,2.64,0,0,1-.25-.54c-.2-.65-.05-1.48,0-4.74.06-3.09,0-5.62-.07-7.33A2.68,2.68,0,0,1,2,26.22a2.59,2.59,0,0,1,3.09,0A2.72,2.72,0,0,1,6,28.38L6,36.06a2.35,2.35,0,0,0,.44,1.32c1.74,2.3,8.06-.06,8.63-.28a13.43,13.43,0,0,0,4.8-2.87,13.12,13.12,0,0,0,3.66-6.47,13.53,13.53,0,0,0,.16-5.93A13.71,13.71,0,0,0,19.8,15a14.22,14.22,0,0,0-5.88-3.79,16,16,0,0,0-9.23-.39c-1,.3-2,.74-2.86.22a2.67,2.67,0,0,1-.72-3.35C1.5,7,2.2,6.76,3.84,6.5Z" transform="translate(-0.3 -5.65)"/><path class="cls-1" d="M48.82,2.51" transform="translate(-0.3 -5.65)"/></svg>