<svg id="Layer_1" data-name="Layer 1" xmlns="http://www.w3.org/2000/svg" viewBox="0 0 240.91 183.61"><defs><style>.cls-1{stroke:#000;stroke-miterlimit:10;}</style></defs><title>Logo-2</title><path class="cls-1" d="M284.7,83a5.46,5.46,0,0,1-1.39,3.27,5.25,5.25,0,0,1-3.25,1.39c-3.06.37-31.19.41-49.91,0-.6,0-7.05-.14-10.9,5a12.63,12.63,0,0,0,.18,15.16c3.86,4.85,10,4.64,10.67,4.6,18.74-.42,46.89-.42,49.94,0a5.45,5.45,0,0,1,3.24,1.45,4.92,4.92,0,0,1,1.39,3.24q.06,30.25.11,60.49c0,.63-.28,6.87,4.63,10.75a12.82,12.82,0,0,0,15.37,0c4.85-3.87,4.62-10,4.58-10.68l.31-155c0-.67.2-7-4.8-10.9a12.8,12.8,0,0,0-15.66.06c-4.79,3.88-4.6,10-4.57,10.69C285,55.54,285.06,79.83,284.7,83Z" transform="translate(-69.27 -8.19)"/><path class="cls-1" d="M84.81,10.44a137.28,137.28,0,0,1,37.71-.84c10.1,1.36,16.86,2.28,25.61,5.45a94.25,94.25,0,0,1,39.22,27.23,91.84,91.84,0,0,1,19.06,39.5,89.32,89.32,0,0,1-19.06,76.53,88.93,88.93,0,0,1-22.6,19.14c-14.68,8.67-27.72,10.62-39.23,12.19-7,.94-44.67,6.08-53-8.24a16.3,16.3,0,0,1-1.25-2.66c-1-3.23-.25-7.36,0-23.49.26-15.34,0-27.91-.37-36.36,0-.64-.24-6.85,4.66-10.69a12.84,12.84,0,0,1,15.32.06c4.86,3.83,4.73,9.95,4.7,10.63q-.16,19-.34,38.06a11.68,11.68,0,0,0,2.18,6.54c8.64,11.43,40-.3,42.76-1.36,6.33-2.43,15.09-5.91,23.84-14.24a64.92,64.92,0,0,0,18.1-32.07A67.73,67.73,0,0,0,183,86.41c-3.72-18-14.19-29-19.07-34-4-4.12-13.68-13.88-29.14-18.79-5.5-1.75-25.09-8-45.76-1.91-5,1.47-10.07,3.66-14.16,1.09-4.74-3-6.72-11.48-3.54-16.61C73.25,13,76.71,11.72,84.81,10.44Z" transform="translate(-69.27 -8.19)"/></svg>