<svg id="Layer_1" data-name="Layer 1" xmlns="http://www.w3.org/2000/svg" viewBox="0 0 1920 1080"><defs><style>.cls-1,.cls-4,.cls-5{fill:#fff;}.cls-2,.cls-3,.cls-4,.cls-5,.cls-6{isolation:isolate;}.cls-2,.cls-3{font-size:249.15px;font-family:BebasNeue, Bebas Neue;}.cls-3{letter-spacing:-0.01em;}.cls-4,.cls-5{font-size:17.47px;font-family:Calibri;}.cls-5{letter-spacing:-0.01em;}.cls-6{font-size:93.02px;font-family:FreightSansProLight-Regular, FreightSans Pro;}</style></defs><g id="Layer_1-2" data-name="Layer 1"><rect class="cls-1" width="1920" height="1080"/></g><g id="Layer_2" data-name="Layer 2"><text class="cls-2" transform="translate(639.65 570.84)">Bl</text><text class="cls-2" transform="translate(825.26 570.84)">a</text><text class="cls-2" transform="translate(926.42 570.84)">ck</text><text class="cls-2" transform="translate(1124.74 570.85)">b</text><text class="cls-3" transform="translate(1225.89 570.85)">o</text><text class="cls-2" transform="translate(1320.82 570.85)">x</text><path d="M493.44,529.72l58,41.63,1-85.66-59-38.73Z" transform="translate(-0.5 -0.5)"/><path d="M493.44,447l59,38.73L621.5,448l-58.62-35.09Z" transform="translate(-0.5 -0.5)"/><text class="cls-4" transform="translate(562.17 562.66) rotate(-28.48)">Indu</text><text class="cls-5" transform="translate(590.24 547.44) rotate(-28.48)">s</text><text class="cls-4" transform="translate(596.07 544.27) rotate(-28.48)">tries</text><path d="M551.5,571.35l1-85.66L621.6,448q-1.44,42.89-2.89,85.75Z" transform="translate(-0.5 -0.5)"/><text class="cls-6" transform="translate(1085.85 647.8)">industries</text><path d="M621,510.5" transform="translate(-0.5 -0.5)"/><path class="cls-1" d="M448.41,441.5c2.92-.77,70.08-40.15,70.08-40.15" transform="translate(-0.5 -0.5)"/><path class="cls-1" d="M448.41,441.5c3-1.51,5.88-3.27,8.78-5l8.71-5.1,17.44-10.18,17.52-10,8.79-5,8.84-4.89c-2.85,1.8-5.73,3.54-8.59,5.31l-8.65,5.21c-5.78,3.46-11.6,6.84-17.41,10.25s-11.67,6.71-17.56,10S454.55,438.76,448.41,441.5Z" transform="translate(-0.5 -0.5)"/><polygon class="cls-1" points="554.95 494.04 621.32 447.54 551.91 485.55 492.94 446.46 548.08 493.73 548.2 493.57 551.58 570.86 554.95 494.04"/></g></svg>