<svg xmlns="http://www.w3.org/2000/svg" viewBox="0 0 1005.19 690.76"><defs><style>.cls-1{fill:#fff;}.cls-10,.cls-11,.cls-12,.cls-13,.cls-15,.cls-16,.cls-17,.cls-18,.cls-19,.cls-2,.cls-20,.cls-21,.cls-22,.cls-23,.cls-24,.cls-25,.cls-3,.cls-4,.cls-5,.cls-6,.cls-7,.cls-8,.cls-9{isolation:isolate;}.cls-2{font-size:54.76px;}.cls-10,.cls-11,.cls-12,.cls-13,.cls-15,.cls-16,.cls-17,.cls-18,.cls-19,.cls-2,.cls-20,.cls-21,.cls-3,.cls-4,.cls-5,.cls-6,.cls-7,.cls-8,.cls-9{font-family:BebasNeue, Bebas Neue;}.cls-3{font-size:54.21px;}.cls-4{font-size:54.4px;}.cls-5{font-size:54.46px;}.cls-6{font-size:54.5px;}.cls-7{font-size:54.7px;}.cls-8{font-size:54.5px;}.cls-9{font-size:54.32px;}.cls-10{font-size:54.33px;}.cls-11{font-size:54.34px;}.cls-12{font-size:54.41px;}.cls-13{font-size:54.49px;}.cls-14{fill:none;stroke:#000;stroke-miterlimit:10;stroke-width:12px;}.cls-15{font-size:54.48px;}.cls-16{font-size:54.32px;}.cls-17{font-size:54.48px;}.cls-18{font-size:54.48px;}.cls-19{font-size:54.62px;}.cls-20{font-size:54.41px;}.cls-21{font-size:54.2px;}.cls-23,.cls-24,.cls-25{font-size:87.6px;fill:#066a1f;font-family:CooperBlack, Cooper Black;}.cls-24{letter-spacing:-0.02em;}.cls-25{letter-spacing:-0.01em;}</style></defs><g id="Layer_2" data-name="Layer 2"><rect class="cls-1" width="1005.19" height="690.76"/></g><g id="Layer_1" data-name="Layer 1"><text class="cls-2" transform="matrix(0.68, 0.74, -0.74, 0.68, 363.26, 428.82)">P</text><text class="cls-3" transform="matrix(0.77, 0.63, -0.63, 0.77, 379.13, 445.85)">u</text><text class="cls-4" transform="translate(398.48 461.75) rotate(29.39)">m</text><text class="cls-5" transform="translate(427.24 477.25) rotate(19.89)">p</text><text class="cls-6" transform="matrix(0.98, 0.2, -0.2, 0.98, 449.22, 485.02)">k</text><text class="cls-7" transform="translate(473.48 489.44) rotate(5.14)">i</text><text class="cls-8" transform="translate(485.96 490.78) rotate(-1.15)">n</text><text class="cls-9" transform="matrix(0.97, -0.22, 0.23, 0.97, 521.47, 488.56)">S</text><text class="cls-10" transform="matrix(0.93, -0.36, 0.36, 0.93, 543.86, 483.22)">p</text><text class="cls-11" transform="translate(564.75 474.84) rotate(-26.82)">i</text><text class="cls-12" transform="matrix(0.84, -0.54, 0.54, 0.84, 575.86, 469.39)">c</text><text class="cls-13" transform="translate(595.61 456.32) rotate(-40.54)">e</text><path class="cls-14" d="M667.46,369.62a181,181,0,0,1-347.73,0"/><path class="cls-14" d="M317.35,278.29a181,181,0,0,1,352.55.24"/><text class="cls-15" transform="translate(375.81 257.42) rotate(-56.99)">A</text><text class="cls-16" transform="matrix(0.7, -0.71, 0.71, 0.7, 391.06, 234.98)">c</text><text class="cls-15" transform="matrix(0.8, -0.6, 0.6, 0.8, 403.91, 221.6)">a</text><text class="cls-15" transform="translate(419.33 209.6) rotate(-28.44)">n</text><text class="cls-17" transform="translate(437.38 199.63) rotate(-19.61)">d</text><text class="cls-18" transform="matrix(0.98, -0.2, 0.2, 0.98, 456.04, 192.94)">l</text><text class="cls-19" transform="translate(471.9 189.46) rotate(-4)">e</text><text class="cls-15" transform="translate(497.02 188.03) rotate(6.75)">c</text><text class="cls-17" transform="matrix(0.97, 0.26, -0.26, 0.97, 515.46, 190)">o</text><text class="cls-17" transform="matrix(0.91, 0.42, -0.42, 0.91, 533.61, 194.25)">m</text><text class="cls-20" transform="matrix(0.82, 0.57, -0.57, 0.82, 557.64, 205.56)">p</text><text class="cls-17" transform="translate(572.16 215.25) rotate(42.5)">a</text><text class="cls-17" transform="matrix(0.63, 0.78, -0.78, 0.63, 586.75, 228.29)">n</text><text class="cls-21" transform="translate(599.8 244.32) rotate(59.83)">y</text><path class="cls-14" d="M601.21,369.62a120.38,120.38,0,0,1-218.73,0"/><path class="cls-14" d="M378.62,278.53a120.39,120.39,0,0,1,226.44,0"/><g class="cls-22"><text class="cls-23" transform="translate(292.58 350.16) scale(1.08 1)">Smel</text><text class="cls-24" transform="translate(529.56 350.16) scale(1.08 1)">l</text><text class="cls-23" transform="translate(562.63 350.16) scale(1.08 1)">y</text><text class="cls-25" transform="translate(621.21 350.16) scale(1.08 1)">’</text><text class="cls-23" transform="translate(648.7 350.16) scale(1.08 1)">s</text></g></g></svg>