<svg xmlns="http://www.w3.org/2000/svg" xmlns:xlink="http://www.w3.org/1999/xlink" viewBox="0 0 1921 1081"><defs><style>.cls-1,.cls-10,.cls-12,.cls-7{stroke:#000;}.cls-1,.cls-10,.cls-12,.cls-7,.cls-8{stroke-miterlimit:10;}.cls-2,.cls-5,.cls-7{fill:#fff;}.cls-3{fill:url(#linear-gradient);}.cls-10,.cls-11,.cls-12,.cls-4,.cls-5,.cls-6,.cls-9{isolation:isolate;}.cls-5{font-size:225.44px;font-family:BebasNeue, Bebas Neue;}.cls-6{opacity:0.7;fill:url(#linear-gradient-2);}.cls-8{fill:url(#linear-gradient-3);stroke:url(#linear-gradient-4);}.cls-10,.cls-11,.cls-12,.cls-9{font-size:142.86px;font-family:FreightSansProLight-Regular, FreightSans Pro;}.cls-11,.cls-9{fill:#010a03;}.cls-10,.cls-12{fill:none;}.cls-11,.cls-12{letter-spacing:0.02em;}</style><linearGradient id="linear-gradient" x1="944.58" y1="596.17" x2="1440.77" y2="596.17" gradientTransform="matrix(1, 0, 0, -1, 0.5, 1082.5)" gradientUnits="userSpaceOnUse"><stop offset="0.05" stop-color="#ed1968"/><stop offset="0.37" stop-color="#ed3a79"/><stop offset="0.81" stop-color="#93278f"/></linearGradient><linearGradient id="linear-gradient-2" x1="895.83" y1="596.17" x2="944.51" y2="596.17" gradientTransform="matrix(1, 0, 0, -1, 0.07, 1082)" gradientUnits="userSpaceOnUse"><stop offset="0.79" stop-color="#ed1968"/><stop offset="0.99" stop-color="#93278f"/></linearGradient><linearGradient id="linear-gradient-3" x1="773.97" y1="753.76" x2="773.97" y2="753.76" gradientTransform="matrix(1, 0, 0, -1, 0.07, 1082)" gradientUnits="userSpaceOnUse"><stop offset="0.04" stop-color="#fff"/><stop offset="0.72" stop-color="#ed1e79"/></linearGradient><linearGradient id="linear-gradient-4" x1="773.97" y1="753.76" x2="773.97" y2="753.76" gradientTransform="matrix(1, 0, 0, -1, 0.07, 1082)" gradientUnits="userSpaceOnUse"><stop offset="0" stop-color="#fff"/><stop offset="0.86"/></linearGradient></defs><g id="Layer_1" data-name="Layer 1"><rect class="cls-1" x="0.5" y="0.5" width="1920" height="1080"/></g><g id="Layer_2" data-name="Layer 2"><path class="cls-2" d="M1390.65,605.38" transform="translate(0.5 0.5)"/><rect class="cls-3" x="945.08" y="377.74" width="496.19" height="217.18"/><g class="cls-4"><text class="cls-5" transform="translate(950.69 564.61)">G</text><text class="cls-5" transform="translate(1038.39 564.61)">amer</text></g><path class="cls-6" d="M944.58,377.24,895.9,426.39,897,545.28l47.6,49.15Z" transform="translate(0.5 0.5)"/><rect class="cls-7" x="427.67" y="408.96" width="517.41" height="154.74"/><path class="cls-8" d="M774,328.24" transform="translate(0.5 0.5)"/><g class="cls-4"><text class="cls-9" transform="translate(442.69 521.76) scale(0.98 1)">P</text><text class="cls-10" transform="translate(442.69 521.76) scale(0.98 1)">P</text><text class="cls-9" transform="translate(512 521.76) scale(0.98 1)">a</text><text class="cls-10" transform="translate(512 521.76) scale(0.98 1)">a</text><text class="cls-11" transform="translate(571.78 521.76) scale(0.98 1)">r</text><text class="cls-12" transform="translate(571.78 521.76) scale(0.98 1)">r</text><text class="cls-9" transform="translate(620.77 521.76) scale(0.98 1)">tTime</text><text class="cls-10" transform="translate(620.77 521.76) scale(0.98 1)">tTime</text></g></g></svg>