<svg id="Layer_1" data-name="Layer 1" xmlns="http://www.w3.org/2000/svg" xmlns:xlink="http://www.w3.org/1999/xlink" viewBox="0 0 1920 1080"><defs><style>.cls-1{fill:#fff;}.cls-2{fill:#37b34a;}.cls-3{fill:url(#linear-gradient);}.cls-4{fill:#e63c94;}.cls-5{fill:url(#linear-gradient-2);}.cls-6{fill:#52b7e8;}.cls-7{fill:#f26d21;}.cls-8{fill:#eee82c;}.cls-9{isolation:isolate;font-size:102.91px;font-family:CoHeadline-Light, Co Headline;font-weight:300;}.cls-10{fill:url(#linear-gradient-3);}</style><linearGradient id="linear-gradient" x1="417.05" y1="452.61" x2="610.68" y2="542.9" gradientTransform="translate(0 2)" gradientUnits="userSpaceOnUse"><stop offset="0.71" stop-color="#e73b94"/><stop offset="0.75" stop-color="#e53a92"/><stop offset="0.77" stop-color="#dd388d"/><stop offset="0.79" stop-color="#cf3584"/><stop offset="0.8" stop-color="#bb3078"/><stop offset="0.81" stop-color="#a22968"/><stop offset="0.82" stop-color="#832154"/><stop offset="0.84" stop-color="#5d183c"/><stop offset="0.85" stop-color="#330d21"/><stop offset="0.86" stop-color="#040102"/><stop offset="0.86"/></linearGradient><linearGradient id="linear-gradient-2" x1="745.12" y1="451.99" x2="941.29" y2="543.47" gradientTransform="translate(0 2)" gradientUnits="userSpaceOnUse"><stop offset="0.6" stop-color="#56b7e7"/><stop offset="0.7" stop-color="#55b6e5"/><stop offset="0.74" stop-color="#53b0de"/><stop offset="0.76" stop-color="#4ea7d3"/><stop offset="0.78" stop-color="#4899c2"/><stop offset="0.8" stop-color="#4088ac"/><stop offset="0.82" stop-color="#367290"/><stop offset="0.83" stop-color="#2a5970"/><stop offset="0.84" stop-color="#1c3b4a"/><stop offset="0.86" stop-color="#0c1a21"/><stop offset="0.86"/></linearGradient><linearGradient id="linear-gradient-3" x1="1748.31" y1="698.51" x2="1822.49" y2="698.51" gradientTransform="translate(-490.6 -261.94)" gradientUnits="userSpaceOnUse"><stop offset="0.59" stop-color="#37b34a"/><stop offset="0.63" stop-color="#35a145"/><stop offset="0.71" stop-color="#2e7338"/><stop offset="0.81" stop-color="#242a23"/><stop offset="0.83" stop-color="#231f20"/></linearGradient></defs><g id="Layer_1-2" data-name="Layer 1"><rect class="cls-1" width="1920" height="1080"/></g><g id="Layer_2" data-name="Layer 2"><path class="cls-2" d="M1355.12,501v.5h0A2.08,2.08,0,0,1,1355.12,501Z" transform="translate(-0.5 -0.5)"/><polygon class="cls-3" points="448.08 388.06 541.15 616.03 550.42 616.03 583.89 602.36 496.41 388.06 448.08 388.06"/><polygon class="cls-4" points="648.27 388.06 541.19 616.03 590.62 616.03 697.7 388.06 648.27 388.06"/><polygon class="cls-5" points="776.56 386.57 870.84 617.52 880.23 617.52 914.15 603.67 825.52 386.57 776.56 386.57"/><polygon class="cls-6" points="979.36 386.57 870.88 617.52 920.96 617.52 1029.44 386.57 979.36 386.57"/><rect class="cls-7" x="712.86" y="387.32" width="38.35" height="229.46"/><rect class="cls-8" x="1048.69" y="387.32" width="38.35" height="229.46"/><text class="cls-9" transform="translate(1451.71 545.23) rotate(-90)">digital</text><path class="cls-2" d="M1312,403.77v93.37a77.24,77.24,0,1,1-47.73-72.38V379.4A120.49,120.49,0,1,0,1312,403.78Z" transform="translate(-0.5 -0.5)"/><path class="cls-10" d="M1312,403.77,1331.89,424q-2.07,35-4.12,70L1312,495.17a77.22,77.22,0,0,0-54.24-72.77l.08-44.43A119.76,119.76,0,0,1,1312,403.78Z" transform="translate(-0.5 -0.5)"/><rect class="cls-2" x="1311.45" y="228.34" width="43.12" height="270.73"/></g></svg>