<svg id="Layer_1" data-name="Layer 1" xmlns="http://www.w3.org/2000/svg" viewBox="0 0 233.56 182.93"><defs><style>.cls-1{fill:#fff;stroke:#fff;}.cls-1,.cls-2{stroke-miterlimit:10;}.cls-2{fill:none;stroke:#000;}</style></defs><title>Logo-white</title><path class="cls-1" d="M25.77,38.73A123.08,123.08,0,0,1,61,37.92c9.43,1.32,15.74,2.21,23.92,5.29a88.44,88.44,0,0,1,36.65,26.47,90.67,90.67,0,0,1,17.81,38.39,91.84,91.84,0,0,1,.76,32.56,89.38,89.38,0,0,1-18.57,41.83,84,84,0,0,1-21.12,18.59c-13.71,8.43-25.9,10.32-36.66,11.85-6.5.92-41.73,5.91-49.49-8a17.08,17.08,0,0,1-1.17-2.58c-.94-3.14-.23-7.15,0-22.83.24-14.91-.05-27.13-.34-35.34,0-.62-.22-6.66,4.35-10.39a11.62,11.62,0,0,1,14.32.06c4.54,3.72,4.41,9.67,4.39,10.33q-.16,18.5-.32,37a11.72,11.72,0,0,0,2,6.35c8.07,11.12,37.36-.28,40-1.32,5.91-2.36,14.1-5.74,22.27-13.83,12.18-12.07,15.71-26.1,16.92-31.17a68.42,68.42,0,0,0,.76-28.59C114,95.13,104.25,84.36,99.7,79.48,96,75.47,86.91,66,72.47,61.21c-5.14-1.7-23.44-7.76-42.76-1.85-4.64,1.42-9.41,3.56-13.23,1.06-4.43-2.9-6.28-11.16-3.31-16.15C15,41.25,18.21,40,25.77,38.73Z" transform="translate(-11.22 -36.54)"/><path class="cls-1" d="M173.36,106c-.05,4.2,0,8.41,2.83,11.59s6.27,3.05,19.31,4.26,17.72,2,22.95,3.36c5.88,1.56,9.31,3.09,12.5,5.49a31.43,31.43,0,0,1,7.62,8.54s.6,1,1.13,2c4.39,8.64,4.54,32.3,4.58,38,0,0-.26,8.59-.52,22.2-.16,8.59-.21,12.37-3.13,14.94-4.69,4.13-14.52,3.18-19-1.83-4-4.45-1.48-9.65-.69-24,.83-14.94,1.76-31-6.86-38.43-6.68-5.75-19-6.24-34.06-6.84a80.36,80.36,0,0,1-8.29-.91c-9.76-1.55-13.37-3.45-16-6.16s-3.57-5.35-4.69-8.43c0,0-2.59-7.14-1.87-27.82,0,0,.07-51.11.09-51.11h0a18.38,18.38,0,0,1,1.81-7.68,11.65,11.65,0,0,1,2.83-3.42A11.85,11.85,0,0,1,169,39.8c3.64,3.11,4.2,8.11,4.41,10.88C174.72,67.93,173.57,90.47,173.36,106Z" transform="translate(-11.22 -36.54)"/><path class="cls-2" d="M204.48,122.59" transform="translate(-11.22 -36.54)"/></svg>