<svg id="Layer_1" data-name="Layer 1" xmlns="http://www.w3.org/2000/svg" viewBox="0 0 233.7 178.13"><defs><style>.cls-1{fill:#fff;stroke:#fff;}.cls-1,.cls-2,.cls-3{stroke-miterlimit:10;}.cls-2{fill:none;}.cls-2,.cls-3{stroke:#000;}</style></defs><title>Logo-2-white</title><path class="cls-1" d="M218.31,112.15a5.21,5.21,0,0,1-1.34,3.17,5.13,5.13,0,0,1-3.15,1.35c-3,.36-30.25.39-48.41,0-.58,0-6.84-.14-10.58,4.9a12.26,12.26,0,0,0,.18,14.7c3.75,4.7,9.71,4.5,10.35,4.47,18.18-.42,45.48-.41,48.43,0a5.35,5.35,0,0,1,3.15,1.41,4.78,4.78,0,0,1,1.35,3.15q0,29.33.11,58.66c0,.61-.28,6.67,4.49,10.44a12.44,12.44,0,0,0,14.91,0c4.7-3.75,4.48-9.73,4.44-10.36l.3-150.31c0-.65.19-6.78-4.66-10.58a12.41,12.41,0,0,0-15.19.07c-4.64,3.76-4.46,9.69-4.43,10.37C218.64,85.55,218.67,109.11,218.31,112.15Z" transform="translate(-9.35 -39.61)"/><path class="cls-2" d="M67.71,152.59" transform="translate(-9.35 -39.61)"/><path class="cls-1" d="M24.43,41.8A133.44,133.44,0,0,1,61,41c9.79,1.32,16.35,2.21,24.83,5.29a91.16,91.16,0,0,1,38,26.42,88.85,88.85,0,0,1,19.29,70.8,87.47,87.47,0,0,1-19.29,41.74A86.24,86.24,0,0,1,102,203.8c-14.23,8.41-26.88,10.3-38,11.82-6.75.92-43.32,5.9-51.38-8a16.19,16.19,0,0,1-1.21-2.58c-1-3.13-.24-7.13,0-22.79C11.6,167.39,11.3,155.2,11,147c0-.62-.22-6.64,4.53-10.37a12.45,12.45,0,0,1,14.86.06c4.71,3.72,4.58,9.65,4.55,10.31l-.33,36.92a11.44,11.44,0,0,0,2.11,6.34c8.38,11.09,38.78-.29,41.48-1.32,6.14-2.36,14.64-5.73,23.12-13.81A63,63,0,0,0,118.87,144a65.79,65.79,0,0,0,.8-28.53c-3.61-17.41-13.77-28.15-18.5-33C97.29,78.47,87.9,69,72.91,64.24c-5.34-1.7-24.34-7.75-44.39-1.85-4.82,1.42-9.77,3.55-13.73,1.06-4.61-2.89-6.52-11.14-3.44-16.12C13.22,44.32,16.58,43.05,24.43,41.8Z" transform="translate(-9.35 -39.61)"/><path class="cls-3" d="M240.74,22.59" transform="translate(-9.35 -39.61)"/></svg>