<svg id="Layer_1" data-name="Layer 1" xmlns="http://www.w3.org/2000/svg" viewBox="0 0 215.68 168.94"><defs><style>.cls-1,.cls-2{stroke:#000;stroke-miterlimit:10;}.cls-2{fill:none;}</style></defs><title>Logo-2</title><path class="cls-1" d="M33.63,45.59a114.17,114.17,0,0,1,32.54-.75c8.71,1.23,14.53,2,22.08,4.89a81.55,81.55,0,0,1,33.83,24.44,83.61,83.61,0,0,1,16.44,35.43,84.85,84.85,0,0,1,.71,30.06,82.58,82.58,0,0,1-17.15,38.61,77.09,77.09,0,0,1-19.5,17.16c-12.65,7.78-23.9,9.53-33.83,10.94-6,.85-38.53,5.46-45.69-7.39A15.12,15.12,0,0,1,22,196.6c-.87-2.9-.21-6.6,0-21.08.22-13.76,0-25-.32-32.62,0-.57-.2-6.15,4-9.6a10.74,10.74,0,0,1,13.22.06c4.19,3.44,4.07,8.93,4,9.54l-.3,34.15a10.91,10.91,0,0,0,1.88,5.86c7.45,10.26,34.49-.26,36.89-1.22,5.46-2.18,13-5.3,20.56-12.77,11.24-11.14,14.5-24.09,15.62-28.77a63.42,63.42,0,0,0,.7-26.39c-3.21-16.11-12.24-26-16.45-30.55-3.45-3.7-11.8-12.45-25.13-16.86C72,64.78,55.1,59.18,37.27,64.64c-4.29,1.31-8.69,3.28-12.22,1C21,62.94,19.26,55.31,22,50.71,23.66,47.92,26.65,46.75,33.63,45.59Z" transform="translate(-20.16 -43.53)"/><path class="cls-1" d="M169.87,107.67c-.05,3.88,0,7.77,2.62,10.7s5.78,2.82,17.82,3.93,16.36,1.83,21.18,3.11c5.43,1.43,8.6,2.84,11.54,5.06a28.77,28.77,0,0,1,7,7.89s.55.9,1,1.86c4,8,4.19,29.81,4.23,35.07,0,0-.24,7.93-.48,20.49-.15,7.94-.19,11.42-2.89,13.8-4.32,3.81-13.4,2.93-17.52-1.69-3.67-4.11-1.37-8.91-.63-22.17.76-13.79,1.61-28.62-6.34-35.47-6.16-5.31-17.54-5.76-31.44-6.32a73.4,73.4,0,0,1-7.65-.84c-9-1.43-12.34-3.19-14.78-5.69s-3.3-4.93-4.33-7.77c0,0-2.39-6.6-1.73-25.68,0,0,.06-47.19.08-47.19h0a16.9,16.9,0,0,1,1.68-7.09,10.87,10.87,0,0,1,16.57-3.09c3.37,2.87,3.88,7.48,4.07,10.05C171.12,72.55,170.07,93.35,169.87,107.67Z" transform="translate(-20.16 -43.53)"/><path class="cls-2" d="M198.6,123" transform="translate(-20.16 -43.53)"/></svg>