<svg id="Ebene_1" data-name="Ebene 1" xmlns="http://www.w3.org/2000/svg" viewBox="0 0 4379.7 1800"><defs><style>.cls-1{fill:none;}.cls-1,.cls-2{stroke:#9a3cf4;stroke-linejoin:round;stroke-width:200px;}.cls-2,.cls-3{fill:#9a3cf4;}.cls-2{stroke-linecap:round;}</style></defs><path class="cls-1" d="M2142,799,3404.83,1813.69c36,29,89.3,29,125.34,0L4793,799" transform="translate(-499 -698)"/><line class="cls-2" x1="1248.1" y1="330" x2="100" y2="330"/><line class="cls-2" x1="1248.1" y1="902" x2="490.35" y2="902"/><line class="cls-2" x1="1248.1" y1="1474" x2="869.23" y2="1474"/><path class="cls-3" d="M4678.7,898V2298H2256.3V898H4678.7m39.6-200H2216.7a160.4,160.4,0,0,0-160.4,160.4V2337.6A160.4,160.4,0,0,0,2216.7,2498H4718.3a160.4,160.4,0,0,0,160.4-160.4V858.4A160.4,160.4,0,0,0,4718.3,698Z" transform="translate(-499 -698)"/></svg>