<svg id="Layer_1" data-name="Layer 1" xmlns="http://www.w3.org/2000/svg" viewBox="0 0 933.46 416.34"><defs><style>.cls-1{fill:none;stroke-width:42px;}.cls-1,.cls-2{stroke:#9a3cf4;stroke-linejoin:round;}.cls-2,.cls-3{fill:#9a3cf4;}.cls-2{stroke-linecap:round;stroke-width:35px;}</style></defs><path class="cls-1" d="M309.71,292.74,595.6,545A21.34,21.34,0,0,0,624,545L909.87,292.74" transform="translate(-4.52 -271.83)"/><line class="cls-2" x1="234.21" y1="110.83" x2="17.5" y2="110.83"/><line class="cls-2" x1="234.21" y1="218.8" x2="91.18" y2="218.8"/><line class="cls-2" x1="234.21" y1="326.77" x2="162.69" y2="326.77"/><path class="cls-3" d="M893.77,313.83A2.21,2.21,0,0,1,896,316V644a2.21,2.21,0,0,1-2.21,2.21H329.37a2.22,2.22,0,0,1-2.22-2.21V316a2.22,2.22,0,0,1,2.22-2.21h564.4m0-42H329.37A44.21,44.21,0,0,0,285.15,316V644a44.21,44.21,0,0,0,44.22,44.21h564.4A44.21,44.21,0,0,0,938,644V316a44.21,44.21,0,0,0-44.21-44.21Z" transform="translate(-4.52 -271.83)"/></svg>