<svg id="Layer_1" data-name="Layer 1" xmlns="http://www.w3.org/2000/svg" viewBox="0 0 644.14 644.14"><defs><style>.cls-1{fill:#9a3cf4;}</style></defs><path class="cls-1" d="M812.72,399.66a20,20,0,0,0-7.23-14.23l-32.85-26.79V240a20.13,20.13,0,0,0-20.13-20.13h-150L497,133.81a20.13,20.13,0,0,0-25.78.28L370.53,219.86H229.15A20.13,20.13,0,0,0,209,240V357.44l-33.18,28.27a20,20,0,0,0-6.9,14,5.34,5.34,0,0,0-.18,1.37V753.29a20.13,20.13,0,0,0,20.13,20.13H792.77a20.13,20.13,0,0,0,20.13-20.13V401A5.28,5.28,0,0,0,812.72,399.66ZM249.28,260.12h483.1V419.54L490.83,592.65,249.28,419.54Zm523.36,473H209V440.22h0L479.11,633.78a20.14,20.14,0,0,0,23.45,0L772.64,440.22h0ZM484.56,175.62l54.25,44.24H432.61Z" transform="translate(-168.76 -129.28)"/></svg>