<svg id="Layer_1" data-name="Layer 1" xmlns="http://www.w3.org/2000/svg" viewBox="0 0 1399.99 1400"><defs><style>.cls-1{fill:#9a3cf4;}</style></defs><path class="cls-1" d="M1699.61,787.65a43.57,43.57,0,0,0-15.72-30.93L1612.5,698.5V440.63a43.75,43.75,0,0,0-43.75-43.75h-326l-229.28-187a43.77,43.77,0,0,0-56,.61L738.53,396.88H431.25a43.75,43.75,0,0,0-43.75,43.75V695.89l-72.12,61.44a43.53,43.53,0,0,0-15,30.32,11.61,11.61,0,0,0-.39,3v765.62A43.75,43.75,0,0,0,343.75,1600h1312.5a43.75,43.75,0,0,0,43.75-43.75V790.63A11.55,11.55,0,0,0,1699.61,787.65ZM475,484.38H1525V830.87l-525,376.25L475,830.87ZM1612.5,1512.5H387.5V875.81h0l587,420.69a43.78,43.78,0,0,0,51,0l587-420.69h0ZM986.36,300.71l117.91,96.17H873.45Z" transform="translate(-300 -200)"/></svg>